<svg xmlns="http://www.w3.org/2000/svg" viewBox="0 0 65.33 47.67"><defs><style>.cls-1{fill:none;stroke:#fff;stroke-miterlimit:10;}</style></defs><title>phone-icon</title><g id="Layer_2" data-name="Layer 2"><g id="Layer_1-2" data-name="Layer 1"><path d="M59.71,47.67H5.62a2.4,2.4,0,0,1-2.25-3.24L15.61,11.77a2.4,2.4,0,0,1,2.25-1.56H47.48a2.4,2.4,0,0,1,2.25,1.56L62,44.43A2.4,2.4,0,0,1,59.71,47.67Z"/><path d="M56.77,0H8.57C4.69,0,0,13,0,13c0,.75.62,1,1.37,1h9.11c.75,0,1.37-.28,1.37-1,0,0-1.73-5-1.77-7H55.26c0,2-1.77,6.72-1.77,6.72A1.3,1.3,0,0,0,54.86,14H64c.75,0,1.37-.28,1.37-1C65.33,13,60.64,0,56.77,0Z"/><rect x="18.55" y="6.89" width="5.88" height="5.88" rx="0.66" ry="0.66"/><rect x="40.69" y="6.89" width="5.88" height="5.88" rx="0.66" ry="0.66"/><circle class="cls-1" cx="32.67" cy="28.94" r="13.9"/></g></g></svg>