<svg xmlns="http://www.w3.org/2000/svg" viewBox="0 0 412 412"><defs><style>.cls-1{fill:#fff;}</style></defs><title>02-white</title><g id="Layer_2" data-name="Layer 2"><g id="Layer_1-2" data-name="Layer 1"><path id="dribbble-circle-icon" class="cls-1" d="M223.54,226.66a453.57,453.57,0,0,1,23.67,86.44A113.8,113.8,0,0,1,135.5,296.5C158.32,260.71,187.45,237.42,223.54,226.66Zm-69.37-123A115.15,115.15,0,0,0,94.53,178.8c38.86-.27,72.47-4.53,100.63-12.81A515.37,515.37,0,0,0,154.17,103.63ZM276,115.15a113.17,113.17,0,0,0-98.2-20.37,535.18,535.18,0,0,1,40.42,63Q255.07,142.19,276,115.15ZM214.34,204.3q-3.71-8.35-7.76-16.59Q158.23,202.9,91.28,203c0,1-.15,2-.15,3a114.32,114.32,0,0,0,26.6,73.4Q155.49,222.76,214.34,204.3Zm33.18,17.25a477.09,477.09,0,0,1,22.25,79.92,115,115,0,0,0,49.58-77.64Q280.08,217,247.51,221.56ZM412,206c0,113.77-92.23,206-206,206S0,319.77,0,206,92.23,0,206,0,412,92.23,412,206Zm-66.95,0A139.05,139.05,0,1,0,206,345,139,139,0,0,0,345.05,206Zm-115.7-26.79c3.13,6.44,6.06,12.94,8.89,19.47q37.53-6.46,82.3.85a114.27,114.27,0,0,0-26.9-67.61C277.62,151.88,256.11,167.62,229.36,179.21Z"/></g></g></svg>