<svg xmlns="http://www.w3.org/2000/svg" viewBox="0 0 57.96 40.24"><defs><style>.cls-1,.cls-3{fill:#fff;}.cls-2{fill:none;}.cls-2,.cls-3{stroke:#000;stroke-miterlimit:10;stroke-width:2px;}</style></defs><title>email-icon</title><g id="Layer_2" data-name="Layer 2"><g id="Layer_1-2" data-name="Layer 1"><path class="cls-1" d="M1.85,39.25A.87.87,0,0,1,1,38.39V1H57v37.4a.87.87,0,0,1-.87.87Z"/><path d="M56,2V38.26H2V2H56M57,0H.91A.91.91,0,0,0,0,.91V38.39a1.85,1.85,0,0,0,1.85,1.85H56.11A1.85,1.85,0,0,0,58,38.39V.91A.91.91,0,0,0,57,0Z"/><line class="cls-2" x1="1.51" y1="38.98" x2="28.98" y2="21.12"/><line class="cls-2" x1="56.45" y1="38.98" x2="28.98" y2="21.12"/><path class="cls-1" d="M29,24.52a6.3,6.3,0,0,1-4-1.46L2.45,1H55.51L33,23.11A6.27,6.27,0,0,1,29,24.52Z"/><path d="M29.3,2H53.06L32.32,22.34a5.29,5.29,0,0,1-6.66,0L4.9,2H29.3m0-2H2.23a.91.91,0,0,0-.64,1.56L24.32,23.83a7.29,7.29,0,0,0,9.34,0L56.37,1.57A.91.91,0,0,0,55.73,0Z"/><path class="cls-3" d="M1.51,39"/></g></g></svg>