<svg xmlns="http://www.w3.org/2000/svg" viewBox="0 0 58.4 58.4"><defs><style>.cls-1{fill:#fff;}</style></defs><title>vimeo-icon</title><g id="Layer_2" data-name="Layer 2"><g id="Layer_1-2" data-name="Layer 1"><rect width="58.4" height="58.4" rx="1" ry="1"/><path class="cls-1" d="M6.48,20.65a.58.58,0,0,1,.05-.84c2.66-2.2,15.2-13.47,17.08-8.48,2.09,5.56,3.5,23.63,7.56,24.33,5.15.88,16.89-19,6.45-19.75a.25.25,0,0,1-.15-.44c2.36-2.11,13.25-11.1,15.38.6,1.22,6.7-14.46,33.15-22.22,33.69s-8.42-7.67-9-10c-.49-2-4.11-15.52-8.29-18.77a2.73,2.73,0,0,0-3.1-.1l-1.53.95a1.08,1.08,0,0,1-1.19,0Z"/></g></g></svg>