<svg xmlns="http://www.w3.org/2000/svg" viewBox="0 0 412 412"><defs><style>.cls-1{fill:#fff;}</style></defs><title>04-white</title><g id="Layer_2" data-name="Layer 2"><g id="Layer_1-2" data-name="Layer 1"><path id="behance-circle-icon" class="cls-1" d="M185.17,231.92q0,14-10,19-5.52,2.69-15.42,2.69h-37V213h37.47q9.8.11,15.22,2.58Q185.17,220,185.17,231.92ZM175.89,184q6.18-3.77,6.19-13.37,0-10.64-8.18-14-7.05-2.38-18-2.38H122.79v33.57h37Q169.71,187.82,175.89,184ZM412,206c0,113.77-92.23,206-206,206S0,319.77,0,206,92.23,0,206,0,412,92.23,412,206ZM246.68,151.93h66.15V136.55H246.68ZM217.3,234.09q0-13.12-5.93-22.31t-17.59-13.43q7.67-3.93,11.61-8.68,7-8.47,7.05-22.41,0-13.53-7-23.24-11.61-15.8-39.46-16.22H92.42V280.05H161A105.41,105.41,0,0,0,182.54,278a41.92,41.92,0,0,0,28-19.62A44.55,44.55,0,0,0,217.3,234.09Zm119.27-24.41a55.31,55.31,0,0,0-9-23.27,45.79,45.79,0,0,0-19.46-16.66,64.08,64.08,0,0,0-26.48-5.28q-24.75,0-40.26,15.61T225.9,224.95q0,31.23,17.18,45.08a61.37,61.37,0,0,0,39.65,13.85q27.23,0,42.36-16.42,9.72-10.33,10.91-20.35H306a24.76,24.76,0,0,1-6.06,7.74Q293.61,260,283.55,260a29.87,29.87,0,0,1-16.23-4.24Q256.23,249,255.55,232h82Q337.76,217.44,336.57,209.68Zm-37.43-14.86q-7-6.07-17.46-6.07-11.33,0-17.57,6.43t-7.84,17.43H307Q306.18,200.88,299.15,194.82Z"/></g></g></svg>