<svg xmlns="http://www.w3.org/2000/svg" viewBox="0 0 73 73"><defs><style>.cls-1{fill:#fff;}</style></defs><title>behance-icon</title><g id="Layer_2" data-name="Layer 2"><g id="Layer_1-2" data-name="Layer 1"><circle cx="36.5" cy="36.5" r="36.5"/><path class="cls-1" d="M26.19,20a20.57,20.57,0,0,1,4.3.42,9.3,9.3,0,0,1,3.33,1.36A6.35,6.35,0,0,1,36,24.29a8.87,8.87,0,0,1,.76,3.89,7.24,7.24,0,0,1-1.13,4.16,8.24,8.24,0,0,1-3.35,2.73,7.94,7.94,0,0,1,4.56,3.08,9.15,9.15,0,0,1,1.5,5.3,9.08,9.08,0,0,1-1,4.33,8.43,8.43,0,0,1-2.61,3A11.57,11.57,0,0,1,31,52.46a16.88,16.88,0,0,1-4.33.55h-16V20Zm-.93,13.37a5.22,5.22,0,0,0,3.19-.93,3.49,3.49,0,0,0,1.25-3,3.84,3.84,0,0,0-.42-1.9,3.08,3.08,0,0,0-1.11-1.16,4.69,4.69,0,0,0-1.6-.58,10.62,10.62,0,0,0-1.87-.16h-6.8v7.73Zm.42,14a9.73,9.73,0,0,0,2-.21,5,5,0,0,0,1.71-.69,3.5,3.5,0,0,0,1.18-1.32A4.54,4.54,0,0,0,31.05,43a4.27,4.27,0,0,0-1.43-3.63,6.12,6.12,0,0,0-3.79-1.09H17.91v9.07Z"/><path class="cls-1" d="M49.55,47.28a5.87,5.87,0,0,0,4.26,1.43,5.85,5.85,0,0,0,3.42-1A4.13,4.13,0,0,0,59,45.61h5.78a11,11,0,0,1-4.26,6.15,12.52,12.52,0,0,1-6.94,1.85,13.64,13.64,0,0,1-5.09-.9,10.57,10.57,0,0,1-3.84-2.57,11.55,11.55,0,0,1-2.43-4,14.55,14.55,0,0,1-.86-5.09,13.94,13.94,0,0,1,.88-5,11.56,11.56,0,0,1,6.36-6.66,12.39,12.39,0,0,1,5-1,11.37,11.37,0,0,1,5.32,1.18,10.62,10.62,0,0,1,3.72,3.17,13,13,0,0,1,2.11,4.53,16.89,16.89,0,0,1,.46,5.32H47.94A6.64,6.64,0,0,0,49.55,47.28ZM57,34.7a4.61,4.61,0,0,0-3.58-1.29,5.72,5.72,0,0,0-2.61.53,5,5,0,0,0-1.67,1.32,4.81,4.81,0,0,0-.88,1.67,7.52,7.52,0,0,0-.3,1.57H58.62A7.59,7.59,0,0,0,57,34.7Z"/><rect class="cls-1" x="44.45" y="23.84" width="17.4" height="3.48"/></g></g></svg>