<svg xmlns="http://www.w3.org/2000/svg" viewBox="0 0 55.93 59.4"><defs><style>.cls-1{fill:#fff;}.cls-2{fill:none;stroke:#000;stroke-miterlimit:10;stroke-width:0.5px;}</style></defs><title>instagram-icon</title><g id="Layer_2" data-name="Layer 2"><g id="Layer_1-2" data-name="Layer 1"><rect class="cls-1" x="0.5" y="3.97" width="54.93" height="54.93" rx="3.81" ry="3.81"/><path d="M51.62,4.47a3.31,3.31,0,0,1,3.31,3.31V55.09a3.31,3.31,0,0,1-3.31,3.31H4.31A3.31,3.31,0,0,1,1,55.09V7.78A3.31,3.31,0,0,1,4.31,4.47H51.62m0-1H4.31A4.31,4.31,0,0,0,0,7.78V55.09A4.31,4.31,0,0,0,4.31,59.4H51.62a4.31,4.31,0,0,0,4.31-4.31V7.78a4.31,4.31,0,0,0-4.31-4.31Z"/><path d="M55.93,31.44V55.09a4.31,4.31,0,0,1-4.31,4.31H4.31A4.31,4.31,0,0,1,0,55.09V31.44Z"/><circle class="cls-1" cx="27.96" cy="31.44" r="16.88"/><path class="cls-1" d="M28,46.17A14.73,14.73,0,1,1,42.7,31.44,14.75,14.75,0,0,1,28,46.17Z"/><path d="M28,18.2A13.23,13.23,0,1,1,14.73,31.44,13.25,13.25,0,0,1,28,18.2m0-3A16.23,16.23,0,1,0,44.2,31.44,16.23,16.23,0,0,0,28,15.2Z"/><rect class="cls-1" x="41.06" y="1.04" width="6.29" height="6.29"/><path d="M46.84,1.54V6.83H41.56V1.54h5.29m1-1H40.56V7.83h7.29V.54Z"/><line class="cls-2" x1="42.51" y1="4.18" x2="45.89" y2="4.18"/><line class="cls-2" x1="42.51" y1="2.57" x2="45.89" y2="2.57"/><line class="cls-2" x1="42.51" y1="5.62" x2="45.89" y2="5.62"/><path d="M6,1.14h4.22a1.49,1.49,0,0,1,1.49,1.49V4a0,0,0,0,1,0,0H4.52a0,0,0,0,1,0,0V2.63A1.49,1.49,0,0,1,6,1.14Z"/><rect x="40.04" width="8.36" height="0.54"/></g></g></svg>