<svg xmlns="http://www.w3.org/2000/svg" viewBox="0 0 75 73.05"><defs><style>.cls-1{fill:#231f20;}</style></defs><title>git-icon</title><g id="Layer_2" data-name="Layer 2"><g id="Layer_1-2" data-name="Layer 1"><path class="cls-1" d="M34.83.09A37.5,37.5,0,0,0,25.12,72.9a2.67,2.67,0,0,0,3.56-2.52V61.91A25.23,25.23,0,0,1,20,59.5c-3.13-1.68-4.51-6.41-4.76-7.31C13,44.62,7.92,44.58,7.77,43.31s7.46,0,9.94,8.12c1.41,4.64,6.7,5.77,11,5.89a7.84,7.84,0,0,1,4.67-6.93.17.17,0,0,0-.06-.32A16.4,16.4,0,0,1,18.75,36.82a15.31,15.31,0,0,1,0-6,16.57,16.57,0,0,1,4.9-8.92l-.07,0s-1.64-6.86.39-7.61c1.06-.39,6.18,3.79,6.18,3.79h0a16.33,16.33,0,0,1,4.72-.7h4.91a23.08,23.08,0,0,1,6,1.1l-.92-.41S50,14,51,14.36c2,.75.39,7.61.39,7.61l-.07,0c.21.2.43.38.63.59A16.34,16.34,0,0,1,41.68,50.07a.17.17,0,0,0-.06.32,7.84,7.84,0,0,1,4.69,7.16V70.38a2.67,2.67,0,0,0,3.56,2.52A37.5,37.5,0,0,0,34.83.09Z"/></g></g></svg>