<svg xmlns="http://www.w3.org/2000/svg" xmlns:xlink="http://www.w3.org/1999/xlink" viewBox="0 0 315.89 277.6"><defs><style>.cls-1,.cls-10,.cls-11,.cls-4,.cls-5{fill:none;}.cls-2{fill:#e0710e;}.cls-3{fill:#093048;}.cls-10,.cls-11,.cls-4,.cls-5{stroke:#093048;stroke-linecap:round;stroke-miterlimit:10;}.cls-4,.cls-5{stroke-width:0.66px;}.cls-5{stroke-dasharray:0.53 1.6;}.cls-6{fill:#fff;}.cls-7{clip-path:url(#clip-path);}.cls-8{clip-path:url(#clip-path-2);}.cls-9{clip-path:url(#clip-path-3);}.cls-10,.cls-11{stroke-width:1.06px;}.cls-11{stroke-dasharray:2.1 2.1;}</style><clipPath id="clip-path" transform="translate(-0.02)"><polygon class="cls-1" points="87.31 145.85 83.44 200.39 54.47 203.98 74.47 148.67 87.31 145.85"/></clipPath><clipPath id="clip-path-2" transform="translate(-0.02)"><polygon class="cls-1" points="147.27 130.78 127.27 186.09 54.47 203.98 74.47 148.67 147.27 130.78"/></clipPath><clipPath id="clip-path-3" transform="translate(-0.02)"><polygon class="cls-1" points="59.14 153.89 57.95 197.73 36.44 213.55 17.92 179.55 59.14 153.89"/></clipPath></defs><title>cjc-logo-dark</title><g id="Layer_2" data-name="Layer 2"><g id="GRAPHIC_DESIGN" data-name="GRAPHIC DESIGN"><path class="cls-2" d="M236.87,248.44s133.07-29.34,26.22-69c0,0,118.76,38.06-27.93,76.13Z" transform="translate(-0.02)"/><path class="cls-3" d="M256.09,232.34a2.53,2.53,0,0,0-2.85,2.26c-.21,1.47.23,2.77,1.6,3a3,3,0,0,0,3.35-2.18A2.67,2.67,0,0,0,256.09,232.34Z" transform="translate(-0.02)"/><path class="cls-3" d="M212.47,267.07a2.53,2.53,0,0,0-2.85,2.26c-.21,1.47.23,2.77,1.6,3a3,3,0,0,0,3.35-2.18A2.67,2.67,0,0,0,212.47,267.07Z" transform="translate(-0.02)"/><line class="cls-4" x1="212.08" y1="269.73" x2="212.28" y2="269.57"/><line class="cls-5" x1="213.53" y1="268.56" x2="254.37" y2="235.59"/><line class="cls-4" x1="254.99" y1="235.09" x2="255.19" y2="234.93"/><path class="cls-3" d="M210.87,270.73a8,8,0,0,1,2.54-.44l-1.14-.69-.43-1.26A8,8,0,0,1,210.87,270.73Z" transform="translate(-0.02)"/><path class="cls-3" d="M255.13,235a1.94,1.94,0,0,1-1.08-.67,3.59,3.59,0,0,0,1.89,0,3.79,3.79,0,0,0-.38,1.85A2,2,0,0,1,255.13,235Z" transform="translate(-0.02)"/><path class="cls-3" d="M233.44,246.15a5.82,5.82,0,0,0-6,5.73,5.94,5.94,0,0,0,5.32,6.42,5.82,5.82,0,0,0,6-5.73A5.94,5.94,0,0,0,233.44,246.15Z" transform="translate(-0.02)"/><path class="cls-3" d="M177.5,200.8c-5.86.55-11-4.32-11.14-10.74-.13-5.51,3.65-10.35,8.71-11.17,5.9-1,11.24,3.65,11.75,10a11.56,11.56,0,0,1-2.22,7.83l45.21,49.41L200,164.87s-13,11.73-24-7.13a6.1,6.1,0,0,1,2.67-8.65l-12.08-4.6h0c-14.92,9.21-25,20.16-32.36,34.08h0l4,13.1h0a5.3,5.3,0,0,1,8-2.74c17.37,12.24,6.16,26,6.16,26l74.87,33.81-44.71-50A9.73,9.73,0,0,1,177.5,200.8Z" transform="translate(-0.02)"/><path class="cls-6" d="M201.47,162.1" transform="translate(-0.02)"/><path class="cls-2" d="M138.21,191.67s.33-.88,1-2.36c.34-.75.78-1.64,1.29-2.66s1.11-2.16,1.84-3.36l1.1-1.9,1.26-2c.85-1.37,1.84-2.76,2.85-4.2s2.13-2.88,3.3-4.31,2.36-2.89,3.67-4.24,2.57-2.75,3.94-4q1-1,2-1.89l2.06-1.73,2-1.66,2-1.45a40.27,40.27,0,0,1,3.78-2.53c1.21-.73,2.32-1.38,3.31-2l2.67-1.28,2.33-1.07-2.14,1.42L174,152.09,171,154.34c-1.15.78-2.28,1.77-3.52,2.77l-1.89,1.55-1.89,1.71-2,1.77q-.94,1-1.92,1.9c-1.32,1.24-2.56,2.61-3.81,4s-2.45,2.76-3.66,4.12-2.3,2.78-3.38,4.14-2.11,2.68-3,4-1.83,2.5-2.62,3.65-1.5,2.21-2.15,3.14-1.17,1.77-1.6,2.46C138.69,190.87,138.21,191.67,138.21,191.67Z" transform="translate(-0.02)"/></g><g id="VIDEO_PRODUCTION" data-name="VIDEO PRODUCTION"><g class="cls-7"><path class="cls-6" d="M57.43,192.31" transform="translate(-0.02)"/><path class="cls-6" d="M143.44,170.92c-1.21.3-4.2-2.2-4.48-3.5L134.7,147.3c-.28-1.3,1.89-2.69,3.1-3l11.28-2.77h0l-48.41,11.9L71,160.74,57.72,192l97-23.84h0Z" transform="translate(-0.02)"/><path class="cls-3" d="M134.44,170.64a2.43,2.43,0,0,1-1.69,2.9l-20.33,5a2.25,2.25,0,0,1-2.69-1.82l-4.64-21.89a2.43,2.43,0,0,1,1.69-2.9l20.33-5a2.25,2.25,0,0,1,2.69,1.82Z" transform="translate(-0.02)"/><path class="cls-3" d="M104.79,177.93a2.43,2.43,0,0,1-1.69,2.9l-20.33,5A2.25,2.25,0,0,1,80.08,184l-4.64-21.89a2.43,2.43,0,0,1,1.69-2.9l20.33-5a2.25,2.25,0,0,1,2.69,1.82Z" transform="translate(-0.02)"/><path class="cls-3" d="M59.82,191.47l10-2.47c1.21-.3.19-3.28-.09-4.58L66.15,167.3l-8.43,24.16Z" transform="translate(-0.02)"/><path class="cls-6" d="M71,160.74l78.12-19.2-1.13-5.32L72.76,154.69ZM142,139.56a1.26,1.26,0,0,1,.87-1.5l.61-.15a1.17,1.17,0,0,1,1.39.94l.08.37a1.26,1.26,0,0,1-.87,1.5l-.61.15a1.17,1.17,0,0,1-1.39-.94Zm-4.14,1a1.26,1.26,0,0,1,.87-1.5l.61-.15a1.17,1.17,0,0,1,1.39.94l.08.37a1.26,1.26,0,0,1-.87,1.5l-.61.15a1.17,1.17,0,0,1-1.39-.94Zm-4.14,1a1.26,1.26,0,0,1,.87-1.5l.61-.15a1.17,1.17,0,0,1,1.39.94l.08.37a1.26,1.26,0,0,1-.87,1.5l-.61.15a1.17,1.17,0,0,1-1.39-.94Zm-4.14,1a1.26,1.26,0,0,1,.87-1.5l.61-.15a1.17,1.17,0,0,1,1.39.94l.08.37a1.26,1.26,0,0,1-.87,1.5l-.61.15a1.17,1.17,0,0,1-1.39-.94Zm-4.14,1a1.26,1.26,0,0,1,.87-1.5L127,142a1.17,1.17,0,0,1,1.39.94l.08.37a1.26,1.26,0,0,1-.87,1.5l-.61.15a1.17,1.17,0,0,1-1.39-.94Zm-4.14,1a1.26,1.26,0,0,1,.87-1.5l.61-.15a1.17,1.17,0,0,1,1.39.94l.08.37a1.26,1.26,0,0,1-.87,1.5l-.61.15a1.17,1.17,0,0,1-1.39-.94Zm-4.14,1a1.26,1.26,0,0,1,.87-1.5l.61-.15a1.17,1.17,0,0,1,1.39.94l.08.37a1.26,1.26,0,0,1-.87,1.5l-.61.15a1.17,1.17,0,0,1-1.39-.94Zm-4.14,1a1.26,1.26,0,0,1,.87-1.5l.61-.15a1.17,1.17,0,0,1,1.39.94l.08.37a1.26,1.26,0,0,1-.87,1.5l-.61.15a1.17,1.17,0,0,1-1.39-.94Zm-4.14,1a1.26,1.26,0,0,1,.87-1.5l.61-.15a1.17,1.17,0,0,1,1.39.94l.08.37a1.26,1.26,0,0,1-.87,1.5l-.61.15a1.17,1.17,0,0,1-1.39-.94Zm-4.14,1a1.26,1.26,0,0,1,.87-1.5l.61-.15a1.17,1.17,0,0,1,1.39.94l.08.37a1.26,1.26,0,0,1-.87,1.5l-.61.15a1.17,1.17,0,0,1-1.39-.94Zm-4.14,1a1.26,1.26,0,0,1,.87-1.5l.61-.15a1.17,1.17,0,0,1,1.39.94l.08.37a1.26,1.26,0,0,1-.87,1.5l-.61.15a1.17,1.17,0,0,1-1.39-.94Zm-4.14,1a1.26,1.26,0,0,1,.87-1.5l.61-.15a1.17,1.17,0,0,1,1.39.94l.08.37a1.26,1.26,0,0,1-.87,1.5l-.61.15a1.17,1.17,0,0,1-1.39-.94Zm-4.14,1a1.26,1.26,0,0,1,.87-1.5l.61-.15a1.17,1.17,0,0,1,1.39.94l.08.37a1.26,1.26,0,0,1-.87,1.5l-.61.15a1.17,1.17,0,0,1-1.39-.94Zm-4.14,1a1.26,1.26,0,0,1,.87-1.5l.61-.15a1.17,1.17,0,0,1,1.39.94l.08.37a1.26,1.26,0,0,1-.87,1.5l-.61.15a1.17,1.17,0,0,1-1.39-.94Zm-4.14,1a1.26,1.26,0,0,1,.87-1.5l.61-.15a1.17,1.17,0,0,1,1.39.94l.08.37a1.26,1.26,0,0,1-.87,1.5l-.61.15a1.17,1.17,0,0,1-1.39-.94Zm-4.14,1a1.26,1.26,0,0,1,.87-1.5l.61-.15a1.17,1.17,0,0,1,1.39.94l.08.37A1.26,1.26,0,0,1,82,156l-.61.15a1.17,1.17,0,0,1-1.39-.94Zm-4.14,1a1.26,1.26,0,0,1,.87-1.5l.61-.15a1.17,1.17,0,0,1,1.39.94l.08.37a1.26,1.26,0,0,1-.87,1.5l-.61.15a1.17,1.17,0,0,1-1.39-.94Zm-3.62.89a1.26,1.26,0,0,1,.87-1.5l.61-.15A1.17,1.17,0,0,1,75,156l.08.37a1.26,1.26,0,0,1-.87,1.5l-.61.15a1.17,1.17,0,0,1-1.39-.94Z" transform="translate(-0.02)"/><path class="cls-3" d="M55.88,198l100-24.57-1.13-5.32L57.7,192ZM149,172.78a1.26,1.26,0,0,1,.87-1.5l.61-.15a1.17,1.17,0,0,1,1.39.94l.08.37a1.26,1.26,0,0,1-.87,1.5l-.61.15a1.17,1.17,0,0,1-1.39-.94Zm-4.14,1a1.26,1.26,0,0,1,.87-1.5l.61-.15a1.17,1.17,0,0,1,1.39.94l.08.37a1.26,1.26,0,0,1-.87,1.5l-.61.15a1.17,1.17,0,0,1-1.39-.94Zm-4.14,1a1.26,1.26,0,0,1,.87-1.5l.61-.15a1.17,1.17,0,0,1,1.39.94l.08.37a1.26,1.26,0,0,1-.87,1.5l-.61.15a1.17,1.17,0,0,1-1.39-.94Zm-4.14,1a1.26,1.26,0,0,1,.87-1.5l.61-.15a1.17,1.17,0,0,1,1.39.94l.08.37a1.26,1.26,0,0,1-.87,1.5l-.61.15a1.17,1.17,0,0,1-1.39-.94Zm-4.14,1a1.26,1.26,0,0,1,.87-1.5l.61-.15a1.17,1.17,0,0,1,1.39.94l.08.37a1.26,1.26,0,0,1-.87,1.5l-.61.15a1.17,1.17,0,0,1-1.39-.94Zm-4.14,1a1.26,1.26,0,0,1,.87-1.5l.61-.15a1.17,1.17,0,0,1,1.39.94l.08.37a1.26,1.26,0,0,1-.87,1.5l-.61.15a1.17,1.17,0,0,1-1.39-.94Zm-4.14,1a1.26,1.26,0,0,1,.87-1.5l.61-.15a1.17,1.17,0,0,1,1.39.94l.08.37a1.26,1.26,0,0,1-.87,1.5l-.61.15a1.17,1.17,0,0,1-1.39-.94Zm-4.14,1a1.26,1.26,0,0,1,.87-1.5l.61-.15a1.17,1.17,0,0,1,1.39.94l.08.37a1.26,1.26,0,0,1-.87,1.5l-.61.15a1.17,1.17,0,0,1-1.39-.94Zm-4.14,1a1.26,1.26,0,0,1,.87-1.5l.61-.15a1.17,1.17,0,0,1,1.39.94l.08.37a1.26,1.26,0,0,1-.87,1.5l-.61.15a1.17,1.17,0,0,1-1.39-.94Zm-4.14,1a1.26,1.26,0,0,1,.87-1.5l.61-.15a1.17,1.17,0,0,1,1.39.94l.08.37a1.26,1.26,0,0,1-.87,1.5l-.61.15a1.17,1.17,0,0,1-1.39-.94Zm-4.14,1a1.26,1.26,0,0,1,.87-1.5l.61-.15a1.17,1.17,0,0,1,1.39.94l.08.37a1.26,1.26,0,0,1-.87,1.5l-.61.15a1.17,1.17,0,0,1-1.39-.94Zm-4.14,1a1.26,1.26,0,0,1,.87-1.5l.61-.15a1.17,1.17,0,0,1,1.39.94l.08.37a1.26,1.26,0,0,1-.87,1.5l-.61.15a1.17,1.17,0,0,1-1.39-.94Zm-4.14,1a1.26,1.26,0,0,1,.87-1.5l.61-.15a1.17,1.17,0,0,1,1.39.94l.08.37a1.26,1.26,0,0,1-.87,1.5l-.61.15a1.17,1.17,0,0,1-1.39-.94Zm-4.14,1a1.26,1.26,0,0,1,.87-1.5l.61-.15a1.17,1.17,0,0,1,1.39.94l.08.37a1.26,1.26,0,0,1-.87,1.5l-.61.15a1.17,1.17,0,0,1-1.39-.94ZM91,187a1.26,1.26,0,0,1,.87-1.5l.61-.15a1.17,1.17,0,0,1,1.39.94l.08.37a1.26,1.26,0,0,1-.87,1.5l-.61.15a1.17,1.17,0,0,1-1.39-.94Zm-4.14,1a1.26,1.26,0,0,1,.87-1.5l.61-.15a1.17,1.17,0,0,1,1.39.94l.08.37a1.26,1.26,0,0,1-.87,1.5l-.61.15a1.17,1.17,0,0,1-1.39-.94Zm-4.14,1a1.26,1.26,0,0,1,.87-1.5l.61-.15a1.17,1.17,0,0,1,1.39.94l.08.37a1.26,1.26,0,0,1-.87,1.5l-.61.15a1.17,1.17,0,0,1-1.39-.94Zm-4.14,1a1.26,1.26,0,0,1,.87-1.5l.61-.15a1.17,1.17,0,0,1,1.39.94l.08.37a1.26,1.26,0,0,1-.87,1.5l-.61.15a1.17,1.17,0,0,1-1.39-.94Zm-4.14,1a1.26,1.26,0,0,1,.87-1.5l.61-.15a1.17,1.17,0,0,1,1.39.94l.08.37a1.26,1.26,0,0,1-.87,1.5l-.61.15a1.17,1.17,0,0,1-1.39-.94Zm-4.14,1a1.26,1.26,0,0,1,.87-1.5l.61-.15a1.17,1.17,0,0,1,1.39.94l.08.37a1.26,1.26,0,0,1-.87,1.5l-.61.15a1.17,1.17,0,0,1-1.39-.94Zm-4.14,1a1.26,1.26,0,0,1,.87-1.5l.61-.15a1.17,1.17,0,0,1,1.39.94l.08.37a1.26,1.26,0,0,1-.87,1.5l-.61.15a1.17,1.17,0,0,1-1.39-.94Zm-4.14,1a1.26,1.26,0,0,1,.87-1.5l.61-.15a1.17,1.17,0,0,1,1.39.94l.08.37a1.26,1.26,0,0,1-.87,1.5l-.61.15a1.17,1.17,0,0,1-1.39-.94Zm-4.14,1a1.26,1.26,0,0,1,.87-1.5l.61-.15a1.17,1.17,0,0,1,1.39.94l.08.37a1.26,1.26,0,0,1-.87,1.5l-.61.15a1.17,1.17,0,0,1-1.39-.94Z" transform="translate(-0.02)"/></g><g class="cls-8"><path class="cls-6" d="M57.43,192.31" transform="translate(-0.02)"/><path class="cls-3" d="M143.44,170.92c-1.21.3-4.2-2.2-4.48-3.5L134.7,147.3c-.28-1.3,1.89-2.69,3.1-3l11.28-2.77h0l-48.41,11.9L71,160.74,57.72,192l97-23.84h0Z" transform="translate(-0.02)"/><path class="cls-2" d="M134.44,170.64a2.43,2.43,0,0,1-1.69,2.9l-20.33,5a2.25,2.25,0,0,1-2.69-1.82l-4.64-21.89a2.43,2.43,0,0,1,1.69-2.9l20.33-5a2.25,2.25,0,0,1,2.69,1.82Z" transform="translate(-0.02)"/><path class="cls-2" d="M163.87,163.85a2.43,2.43,0,0,1-1.69,2.9l-20.33,5c-1.21.3-2.42-.52-2.69-2.39l-4.64-21.89a2.76,2.76,0,0,1,1.69-2.9l20.33-4.43a2.25,2.25,0,0,1,2.69,1.82Z" transform="translate(-0.02)"/><path class="cls-2" d="M104.79,177.93a2.43,2.43,0,0,1-1.69,2.9l-20.33,5A2.25,2.25,0,0,1,80.08,184l-4.64-21.89a2.43,2.43,0,0,1,1.69-2.9l20.33-5a2.25,2.25,0,0,1,2.69,1.82Z" transform="translate(-0.02)"/><path class="cls-2" d="M59.82,191.47l10-2.47c1.21-.3.19-3.28-.09-4.58L66.15,167.3l-8.43,24.16Z" transform="translate(-0.02)"/><path class="cls-3" d="M71,160.74l78.12-19.2-1.13-5.32L72.76,154.69ZM142,139.56a1.26,1.26,0,0,1,.87-1.5l.61-.15a1.17,1.17,0,0,1,1.39.94l.08.37a1.26,1.26,0,0,1-.87,1.5l-.61.15a1.17,1.17,0,0,1-1.39-.94Zm-4.14,1a1.26,1.26,0,0,1,.87-1.5l.61-.15a1.17,1.17,0,0,1,1.39.94l.08.37a1.26,1.26,0,0,1-.87,1.5l-.61.15a1.17,1.17,0,0,1-1.39-.94Zm-4.14,1a1.26,1.26,0,0,1,.87-1.5l.61-.15a1.17,1.17,0,0,1,1.39.94l.08.37a1.26,1.26,0,0,1-.87,1.5l-.61.15a1.17,1.17,0,0,1-1.39-.94Zm-4.14,1a1.26,1.26,0,0,1,.87-1.5l.61-.15a1.17,1.17,0,0,1,1.39.94l.08.37a1.26,1.26,0,0,1-.87,1.5l-.61.15a1.17,1.17,0,0,1-1.39-.94Zm-4.14,1a1.26,1.26,0,0,1,.87-1.5L127,142a1.17,1.17,0,0,1,1.39.94l.08.37a1.26,1.26,0,0,1-.87,1.5l-.61.15a1.17,1.17,0,0,1-1.39-.94Zm-4.14,1a1.26,1.26,0,0,1,.87-1.5l.61-.15a1.17,1.17,0,0,1,1.39.94l.08.37a1.26,1.26,0,0,1-.87,1.5l-.61.15a1.17,1.17,0,0,1-1.39-.94Zm-4.14,1a1.26,1.26,0,0,1,.87-1.5l.61-.15a1.17,1.17,0,0,1,1.39.94l.08.37a1.26,1.26,0,0,1-.87,1.5l-.61.15a1.17,1.17,0,0,1-1.39-.94Zm-4.14,1a1.26,1.26,0,0,1,.87-1.5l.61-.15a1.17,1.17,0,0,1,1.39.94l.08.37a1.26,1.26,0,0,1-.87,1.5l-.61.15a1.17,1.17,0,0,1-1.39-.94Zm-4.14,1a1.26,1.26,0,0,1,.87-1.5l.61-.15a1.17,1.17,0,0,1,1.39.94l.08.37a1.26,1.26,0,0,1-.87,1.5l-.61.15a1.17,1.17,0,0,1-1.39-.94Zm-4.14,1a1.26,1.26,0,0,1,.87-1.5l.61-.15a1.17,1.17,0,0,1,1.39.94l.08.37a1.26,1.26,0,0,1-.87,1.5l-.61.15a1.17,1.17,0,0,1-1.39-.94Zm-4.14,1a1.26,1.26,0,0,1,.87-1.5l.61-.15a1.17,1.17,0,0,1,1.39.94l.08.37a1.26,1.26,0,0,1-.87,1.5l-.61.15a1.17,1.17,0,0,1-1.39-.94Zm-4.14,1a1.26,1.26,0,0,1,.87-1.5l.61-.15a1.17,1.17,0,0,1,1.39.94l.08.37a1.26,1.26,0,0,1-.87,1.5l-.61.15a1.17,1.17,0,0,1-1.39-.94Zm-4.14,1a1.26,1.26,0,0,1,.87-1.5l.61-.15a1.17,1.17,0,0,1,1.39.94l.08.37a1.26,1.26,0,0,1-.87,1.5l-.61.15a1.17,1.17,0,0,1-1.39-.94Zm-4.14,1a1.26,1.26,0,0,1,.87-1.5l.61-.15a1.17,1.17,0,0,1,1.39.94l.08.37a1.26,1.26,0,0,1-.87,1.5l-.61.15a1.17,1.17,0,0,1-1.39-.94Zm-4.14,1a1.26,1.26,0,0,1,.87-1.5l.61-.15a1.17,1.17,0,0,1,1.39.94l.08.37a1.26,1.26,0,0,1-.87,1.5l-.61.15a1.17,1.17,0,0,1-1.39-.94Zm-4.14,1a1.26,1.26,0,0,1,.87-1.5l.61-.15a1.17,1.17,0,0,1,1.39.94l.08.37A1.26,1.26,0,0,1,82,156l-.61.15a1.17,1.17,0,0,1-1.39-.94Zm-4.14,1a1.26,1.26,0,0,1,.87-1.5l.61-.15a1.17,1.17,0,0,1,1.39.94l.08.37a1.26,1.26,0,0,1-.87,1.5l-.61.15a1.17,1.17,0,0,1-1.39-.94Zm-3.62.89a1.26,1.26,0,0,1,.87-1.5l.61-.15A1.17,1.17,0,0,1,75,156l.08.37a1.26,1.26,0,0,1-.87,1.5l-.61.15a1.17,1.17,0,0,1-1.39-.94Z" transform="translate(-0.02)"/><path class="cls-3" d="M55.88,198l100-24.57-1.13-5.32L57.7,192ZM149,172.78a1.26,1.26,0,0,1,.87-1.5l.61-.15a1.17,1.17,0,0,1,1.39.94l.08.37a1.26,1.26,0,0,1-.87,1.5l-.61.15a1.17,1.17,0,0,1-1.39-.94Zm-4.14,1a1.26,1.26,0,0,1,.87-1.5l.61-.15a1.17,1.17,0,0,1,1.39.94l.08.37a1.26,1.26,0,0,1-.87,1.5l-.61.15a1.17,1.17,0,0,1-1.39-.94Zm-4.14,1a1.26,1.26,0,0,1,.87-1.5l.61-.15a1.17,1.17,0,0,1,1.39.94l.08.37a1.26,1.26,0,0,1-.87,1.5l-.61.15a1.17,1.17,0,0,1-1.39-.94Zm-4.14,1a1.26,1.26,0,0,1,.87-1.5l.61-.15a1.17,1.17,0,0,1,1.39.94l.08.37a1.26,1.26,0,0,1-.87,1.5l-.61.15a1.17,1.17,0,0,1-1.39-.94Zm-4.14,1a1.26,1.26,0,0,1,.87-1.5l.61-.15a1.17,1.17,0,0,1,1.39.94l.08.37a1.26,1.26,0,0,1-.87,1.5l-.61.15a1.17,1.17,0,0,1-1.39-.94Zm-4.14,1a1.26,1.26,0,0,1,.87-1.5l.61-.15a1.17,1.17,0,0,1,1.39.94l.08.37a1.26,1.26,0,0,1-.87,1.5l-.61.15a1.17,1.17,0,0,1-1.39-.94Zm-4.14,1a1.26,1.26,0,0,1,.87-1.5l.61-.15a1.17,1.17,0,0,1,1.39.94l.08.37a1.26,1.26,0,0,1-.87,1.5l-.61.15a1.17,1.17,0,0,1-1.39-.94Zm-4.14,1a1.26,1.26,0,0,1,.87-1.5l.61-.15a1.17,1.17,0,0,1,1.39.94l.08.37a1.26,1.26,0,0,1-.87,1.5l-.61.15a1.17,1.17,0,0,1-1.39-.94Zm-4.14,1a1.26,1.26,0,0,1,.87-1.5l.61-.15a1.17,1.17,0,0,1,1.39.94l.08.37a1.26,1.26,0,0,1-.87,1.5l-.61.15a1.17,1.17,0,0,1-1.39-.94Zm-4.14,1a1.26,1.26,0,0,1,.87-1.5l.61-.15a1.17,1.17,0,0,1,1.39.94l.08.37a1.26,1.26,0,0,1-.87,1.5l-.61.15a1.17,1.17,0,0,1-1.39-.94Zm-4.14,1a1.26,1.26,0,0,1,.87-1.5l.61-.15a1.17,1.17,0,0,1,1.39.94l.08.37a1.26,1.26,0,0,1-.87,1.5l-.61.15a1.17,1.17,0,0,1-1.39-.94Zm-4.14,1a1.26,1.26,0,0,1,.87-1.5l.61-.15a1.17,1.17,0,0,1,1.39.94l.08.37a1.26,1.26,0,0,1-.87,1.5l-.61.15a1.17,1.17,0,0,1-1.39-.94Zm-4.14,1a1.26,1.26,0,0,1,.87-1.5l.61-.15a1.17,1.17,0,0,1,1.39.94l.08.37a1.26,1.26,0,0,1-.87,1.5l-.61.15a1.17,1.17,0,0,1-1.39-.94Zm-4.14,1a1.26,1.26,0,0,1,.87-1.5l.61-.15a1.17,1.17,0,0,1,1.39.94l.08.37a1.26,1.26,0,0,1-.87,1.5l-.61.15a1.17,1.17,0,0,1-1.39-.94ZM91,187a1.26,1.26,0,0,1,.87-1.5l.61-.15a1.17,1.17,0,0,1,1.39.94l.08.37a1.26,1.26,0,0,1-.87,1.5l-.61.15a1.17,1.17,0,0,1-1.39-.94Zm-4.14,1a1.26,1.26,0,0,1,.87-1.5l.61-.15a1.17,1.17,0,0,1,1.39.94l.08.37a1.26,1.26,0,0,1-.87,1.5l-.61.15a1.17,1.17,0,0,1-1.39-.94Zm-4.14,1a1.26,1.26,0,0,1,.87-1.5l.61-.15a1.17,1.17,0,0,1,1.39.94l.08.37a1.26,1.26,0,0,1-.87,1.5l-.61.15a1.17,1.17,0,0,1-1.39-.94Zm-4.14,1a1.26,1.26,0,0,1,.87-1.5l.61-.15a1.17,1.17,0,0,1,1.39.94l.08.37a1.26,1.26,0,0,1-.87,1.5l-.61.15a1.17,1.17,0,0,1-1.39-.94Zm-4.14,1a1.26,1.26,0,0,1,.87-1.5l.61-.15a1.17,1.17,0,0,1,1.39.94l.08.37a1.26,1.26,0,0,1-.87,1.5l-.61.15a1.17,1.17,0,0,1-1.39-.94Zm-4.14,1a1.26,1.26,0,0,1,.87-1.5l.61-.15a1.17,1.17,0,0,1,1.39.94l.08.37a1.26,1.26,0,0,1-.87,1.5l-.61.15a1.17,1.17,0,0,1-1.39-.94Zm-4.14,1a1.26,1.26,0,0,1,.87-1.5l.61-.15a1.17,1.17,0,0,1,1.39.94l.08.37a1.26,1.26,0,0,1-.87,1.5l-.61.15a1.17,1.17,0,0,1-1.39-.94Zm-4.14,1a1.26,1.26,0,0,1,.87-1.5l.61-.15a1.17,1.17,0,0,1,1.39.94l.08.37a1.26,1.26,0,0,1-.87,1.5l-.61.15a1.17,1.17,0,0,1-1.39-.94Zm-4.14,1a1.26,1.26,0,0,1,.87-1.5l.61-.15a1.17,1.17,0,0,1,1.39.94l.08.37a1.26,1.26,0,0,1-.87,1.5l-.61.15a1.17,1.17,0,0,1-1.39-.94Z" transform="translate(-0.02)"/></g><g id="SCISSORS"><g id="Scissors-2" data-name="Scissors"><polygon class="cls-3" points="54.1 215.08 43.44 204.51 40.38 121.09 50.24 109.65 54.1 215.08"/><polygon class="cls-3" points="56.88 214.46 68.43 205.04 78.87 122.32 70.07 109.92 56.88 214.46"/><path class="cls-3" d="M46.4,231.51l20.27-6.79,2.53-20.06L38,230.2a27.09,27.09,0,0,0-9.37,16.35l-2.39,13.77c-2.33,13.41,14.6,20.8,21.07,9.08a15.27,15.27,0,0,0,1.75-5.5l1.59-12.59c.82-6.46-3.39-12.41-9.39-13.29A7.81,7.81,0,0,1,46.4,231.51ZM42.24,242l4.56,3.85a3.18,3.18,0,0,1,1,2.88l-2.2,17.46a3,3,0,0,1-1.71,2.48L38.54,271a2.7,2.7,0,0,1-2.86-.42l-4.55-3.85a3.17,3.17,0,0,1-1-2.88l2.2-17.46A3,3,0,0,1,34,244l5.39-2.39A2.67,2.67,0,0,1,42.24,242Z" transform="translate(-0.02)"/><path class="cls-3" d="M67.45,240.15c-6.05.26-10.76,5.75-10.52,12.26l.47,12.69a15.44,15.44,0,0,0,1.26,5.65c5.4,12.34,22.91,6.72,21.78-6.87l-1.16-14a27.54,27.54,0,0,0-7.87-17.24L42.61,204.06l.74,20.23,19.58,8.84A8,8,0,0,1,67.45,240.15ZM69,243.87l5.22,2.93a3.15,3.15,0,0,1,1.55,2.64l.64,17.6a3.19,3.19,0,0,1-1.34,2.77l-4.91,3.36a2.72,2.72,0,0,1-2.9.12l-5.09-2.94a3,3,0,0,1-1.42-2.65l-.64-17.6a3.08,3.08,0,0,1,1.21-2.76L66.17,244A2.61,2.61,0,0,1,69,243.87Z" transform="translate(-0.02)"/><path class="cls-3" d="M67.59,240.14c-6.05.26-10.76,5.75-10.52,12.26l.47,12.69a15.44,15.44,0,0,0,1.26,5.65c5.4,12.34,22.91,6.72,21.78-6.87l-1.16-14a27.54,27.54,0,0,0-7.87-17.24L42.75,204.06l.74,20.23,19.58,8.84A8,8,0,0,1,67.59,240.14Zm1.55,3.71,5.15,2.94a3.1,3.1,0,0,1,1.48,2.65l.64,17.6a3.13,3.13,0,0,1-1.27,2.76l-4.87,3.36a2.69,2.69,0,0,1-2.88.12l-5.15-2.94a3.1,3.1,0,0,1-1.48-2.65l-.64-17.6a3.14,3.14,0,0,1,1.28-2.76L66.27,244A2.66,2.66,0,0,1,69.14,243.86Z" transform="translate(-0.02)"/></g><polygon class="cls-6" points="52.34 210.44 49.7 208.42 44.48 120.38 49.32 114.06 52.34 210.44"/><polygon class="cls-6" points="58.77 209.83 61.83 208.22 75.16 123.22 71.15 115.58 58.77 209.83"/></g><g class="cls-9"><path class="cls-6" d="M0,230.23" transform="translate(-0.02)"/><path class="cls-3" d="M75.59,181.14c-1.06.69-4.63-.69-5.26-1.83l-9.85-17.7c-.64-1.15,1-3.19,2.08-3.88l9.92-6.4-42.59,27.5L3.75,195.7.18,229.82l85.33-55.08Z" transform="translate(-0.02)"/><path class="cls-2" d="M67,183.89a2.53,2.53,0,0,1-.77,3.32L48.31,198.75a2.16,2.16,0,0,1-3.08-.83L34.51,178.67a2.53,2.53,0,0,1,.77-3.32L53.16,163.8a2.16,2.16,0,0,1,3.08.83Z" transform="translate(-0.02)"/><path class="cls-2" d="M68.3,175.89l-7.89-14.17a2.53,2.53,0,0,1,.77-3.32L68,154Z" transform="translate(-0.02)"/><path class="cls-3" d="M2,228.63l8.84-5.71c1.06-.69-.77-3.18-1.41-4.32L1.08,203.55,0,229.33Z" transform="translate(-0.02)"/><path class="cls-3" d="M3.75,195.7l68.73-44.37-2.61-4.68L3.73,189.35Zm61.46-43.9a1.31,1.31,0,0,1,.4-1.72l.54-.35a1.12,1.12,0,0,1,1.59.43l.18.32a1.31,1.31,0,0,1-.4,1.72l-.54.35a1.12,1.12,0,0,1-1.59-.43Zm-3.64,2.35a1.31,1.31,0,0,1,.4-1.72l.54-.35a1.12,1.12,0,0,1,1.59.43l.18.32a1.31,1.31,0,0,1-.4,1.72l-.54.35a1.12,1.12,0,0,1-1.59-.43Zm-3.64,2.35a1.31,1.31,0,0,1,.4-1.72l.54-.35a1.12,1.12,0,0,1,1.59.43l.18.32a1.31,1.31,0,0,1-.4,1.72l-.54.35a1.12,1.12,0,0,1-1.59-.43Zm-3.64,2.35a1.31,1.31,0,0,1,.4-1.72l.54-.35a1.12,1.12,0,0,1,1.59.43l.18.32a1.31,1.31,0,0,1-.4,1.72l-.54.35a1.12,1.12,0,0,1-1.59-.43Zm-3.64,2.35a1.31,1.31,0,0,1,.4-1.72l.54-.35a1.12,1.12,0,0,1,1.59.43l.18.32a1.31,1.31,0,0,1-.4,1.72l-.54.35a1.12,1.12,0,0,1-1.6-.43ZM47,163.56a1.31,1.31,0,0,1,.4-1.72l.54-.35a1.12,1.12,0,0,1,1.59.43l.18.32a1.31,1.31,0,0,1-.4,1.72l-.54.35a1.12,1.12,0,0,1-1.6-.43Zm-3.64,2.35a1.31,1.31,0,0,1,.4-1.72l.54-.35a1.12,1.12,0,0,1,1.59.43l.18.32a1.31,1.31,0,0,1-.4,1.72l-.54.35a1.12,1.12,0,0,1-1.6-.43Zm-3.64,2.35a1.31,1.31,0,0,1,.4-1.72l.54-.35a1.12,1.12,0,0,1,1.59.43l.18.32a1.31,1.31,0,0,1-.4,1.72l-.54.35a1.12,1.12,0,0,1-1.6-.43Zm-3.64,2.35a1.31,1.31,0,0,1,.4-1.72l.54-.35a1.12,1.12,0,0,1,1.59.43l.18.32a1.31,1.31,0,0,1-.4,1.72l-.54.35a1.12,1.12,0,0,1-1.6-.43ZM32.42,173a1.31,1.31,0,0,1,.4-1.72l.54-.35a1.12,1.12,0,0,1,1.59.43l.18.32a1.31,1.31,0,0,1-.4,1.72l-.54.35a1.12,1.12,0,0,1-1.6-.43Zm-3.64,2.35a1.31,1.31,0,0,1,.4-1.72l.54-.35a1.12,1.12,0,0,1,1.59.43l.18.32a1.31,1.31,0,0,1-.4,1.72l-.54.35a1.12,1.12,0,0,1-1.6-.43Zm-3.64,2.35a1.31,1.31,0,0,1,.4-1.72l.54-.35a1.12,1.12,0,0,1,1.59.43l.18.32a1.31,1.31,0,0,1-.4,1.72l-.54.35a1.12,1.12,0,0,1-1.6-.43ZM21.49,180a1.31,1.31,0,0,1,.4-1.72l.54-.35a1.12,1.12,0,0,1,1.59.43l.18.32a1.31,1.31,0,0,1-.4,1.72l-.54.35a1.12,1.12,0,0,1-1.6-.43Zm-3.64,2.35a1.31,1.31,0,0,1,.4-1.72l.54-.35a1.12,1.12,0,0,1,1.59.43l.18.32a1.31,1.31,0,0,1-.4,1.72l-.54.35A1.12,1.12,0,0,1,18,182.7Zm-3.64,2.35a1.31,1.31,0,0,1,.4-1.72l.54-.35a1.12,1.12,0,0,1,1.59.43l.18.32a1.31,1.31,0,0,1-.4,1.72l-.54.35a1.12,1.12,0,0,1-1.59-.43Zm-3.64,2.35a1.31,1.31,0,0,1,.4-1.72l.54-.35a1.12,1.12,0,0,1,1.59.43l.18.32a1.31,1.31,0,0,1-.4,1.72l-.54.35a1.12,1.12,0,0,1-1.59-.43Zm-3.64,2.35a1.31,1.31,0,0,1,.4-1.72l.54-.35a1.12,1.12,0,0,1,1.59.43l.18.32a1.31,1.31,0,0,1-.4,1.72l-.54.35a1.12,1.12,0,0,1-1.59-.43Zm-3.18,2.05a1.31,1.31,0,0,1,.4-1.72l.54-.35a1.12,1.12,0,0,1,1.59.43l.18.32a1.31,1.31,0,0,1-.4,1.72l-.54.35a1.12,1.12,0,0,1-1.59-.43Z" transform="translate(-0.02)"/><path class="cls-3" d="M.18,236.19l87.94-56.77-2.61-4.68L.16,229.84Zm81.23-55.13a1.31,1.31,0,0,1,.4-1.72l.54-.35a1.12,1.12,0,0,1,1.59.43l.18.32a1.31,1.31,0,0,1-.4,1.72l-.54.35a1.12,1.12,0,0,1-1.59-.43Zm-3.64,2.35a1.31,1.31,0,0,1,.4-1.72l.54-.35a1.12,1.12,0,0,1,1.59.43l.18.32a1.31,1.31,0,0,1-.4,1.72l-.54.35a1.12,1.12,0,0,1-1.59-.43Zm-3.64,2.35a1.31,1.31,0,0,1,.4-1.72l.54-.35a1.12,1.12,0,0,1,1.59.43l.18.32a1.31,1.31,0,0,1-.4,1.72l-.54.35a1.12,1.12,0,0,1-1.59-.43Zm-3.64,2.35a1.31,1.31,0,0,1,.4-1.72l.54-.35a1.12,1.12,0,0,1,1.59.43l.18.32a1.31,1.31,0,0,1-.4,1.72l-.54.35a1.12,1.12,0,0,1-1.59-.43Zm-3.64,2.35a1.31,1.31,0,0,1,.4-1.72l.54-.35a1.12,1.12,0,0,1,1.59.43l.18.32a1.31,1.31,0,0,1-.4,1.72l-.54.35a1.12,1.12,0,0,1-1.59-.43Zm-3.64,2.35a1.31,1.31,0,0,1,.4-1.72l.54-.35a1.12,1.12,0,0,1,1.59.43l.18.32a1.31,1.31,0,0,1-.4,1.72l-.54.35a1.12,1.12,0,0,1-1.59-.43Zm-3.64,2.35a1.31,1.31,0,0,1,.4-1.72l.54-.35a1.12,1.12,0,0,1,1.59.43l.18.32a1.31,1.31,0,0,1-.4,1.72l-.54.35a1.12,1.12,0,0,1-1.59-.43Zm-3.64,2.35a1.31,1.31,0,0,1,.4-1.72l.54-.35a1.12,1.12,0,0,1,1.59.43l.18.32a1.31,1.31,0,0,1-.4,1.72l-.54.35a1.12,1.12,0,0,1-1.59-.43Zm-3.64,2.35a1.31,1.31,0,0,1,.4-1.72l.54-.35a1.12,1.12,0,0,1,1.59.43l.18.32a1.31,1.31,0,0,1-.4,1.72l-.54.35a1.12,1.12,0,0,1-1.59-.43Zm-3.64,2.35a1.31,1.31,0,0,1,.4-1.72l.54-.35a1.12,1.12,0,0,1,1.59.43l.18.32a1.31,1.31,0,0,1-.4,1.72l-.54.35a1.12,1.12,0,0,1-1.6-.43ZM45,204.58a1.31,1.31,0,0,1,.4-1.72l.54-.35a1.12,1.12,0,0,1,1.59.43l.18.32a1.31,1.31,0,0,1-.4,1.72l-.54.35a1.12,1.12,0,0,1-1.6-.43Zm-3.64,2.35a1.31,1.31,0,0,1,.4-1.72l.54-.35a1.12,1.12,0,0,1,1.59.43l.18.32a1.31,1.31,0,0,1-.4,1.72l-.54.35a1.12,1.12,0,0,1-1.6-.43Zm-3.64,2.35a1.31,1.31,0,0,1,.4-1.72l.54-.35a1.12,1.12,0,0,1,1.59.43l.18.32a1.31,1.31,0,0,1-.4,1.72l-.54.35a1.12,1.12,0,0,1-1.6-.43ZM34,211.64a1.31,1.31,0,0,1,.4-1.72l.54-.35a1.12,1.12,0,0,1,1.59.43l.18.32a1.31,1.31,0,0,1-.4,1.72l-.54.35a1.12,1.12,0,0,1-1.6-.43ZM30.4,214a1.31,1.31,0,0,1,.4-1.72l.54-.35a1.12,1.12,0,0,1,1.59.43l.18.32a1.31,1.31,0,0,1-.4,1.72l-.54.35a1.12,1.12,0,0,1-1.6-.43Zm-3.64,2.35a1.31,1.31,0,0,1,.4-1.72l.54-.35a1.12,1.12,0,0,1,1.59.43l.18.32a1.31,1.31,0,0,1-.4,1.72l-.54.35a1.12,1.12,0,0,1-1.6-.43Zm-3.64,2.35a1.31,1.31,0,0,1,.4-1.72l.54-.35a1.12,1.12,0,0,1,1.59.43l.18.32a1.31,1.31,0,0,1-.4,1.72l-.54.35a1.12,1.12,0,0,1-1.6-.43ZM19.47,221a1.31,1.31,0,0,1,.4-1.72l.54-.35a1.12,1.12,0,0,1,1.59.43l.18.32a1.31,1.31,0,0,1-.4,1.72l-.54.35a1.12,1.12,0,0,1-1.6-.43Zm-3.64,2.35a1.31,1.31,0,0,1,.4-1.72l.54-.35a1.12,1.12,0,0,1,1.59.43l.18.32a1.31,1.31,0,0,1-.4,1.72l-.54.35a1.12,1.12,0,0,1-1.59-.43Zm-3.64,2.35a1.31,1.31,0,0,1,.4-1.72l.54-.35a1.12,1.12,0,0,1,1.59.43l.18.32a1.31,1.31,0,0,1-.4,1.72l-.54.35a1.12,1.12,0,0,1-1.59-.43ZM8.54,228.1a1.31,1.31,0,0,1,.4-1.72l.54-.35a1.12,1.12,0,0,1,1.59.43l.18.32a1.31,1.31,0,0,1-.4,1.72l-.54.35a1.12,1.12,0,0,1-1.59-.43Zm-3.64,2.35a1.31,1.31,0,0,1,.4-1.72l.54-.35a1.12,1.12,0,0,1,1.59.43l.18.32a1.31,1.31,0,0,1-.4,1.72l-.54.35a1.12,1.12,0,0,1-1.59-.43Zm-3.64,2.35a1.31,1.31,0,0,1,.4-1.72l.54-.35a1.12,1.12,0,0,1,1.59.43l.18.32a1.31,1.31,0,0,1-.4,1.72l-.54.35a1.12,1.12,0,0,1-1.59-.43Z" transform="translate(-0.02)"/></g><path class="cls-2" d="M20.49,184.89l6.58-4.25a2.16,2.16,0,0,1,3.08.83l10.72,19.26a2.53,2.53,0,0,1-.77,3.32l-6.68,4.31Z" transform="translate(-0.02)"/><path class="cls-6" d="M55.64,227.11a3.93,3.93,0,0,1-5.14-2.55A4.41,4.41,0,0,1,52.88,219,3.93,3.93,0,0,1,58,221.58,4.41,4.41,0,0,1,55.64,227.11Z" transform="translate(-0.02)"/><path class="cls-3" d="M52.14,220.37h0a.53.53,0,0,1,.78.07l3.52,4.49a.63.63,0,0,1-.07.84h0a.53.53,0,0,1-.78-.07l-3.52-4.49A.63.63,0,0,1,52.14,220.37Z" transform="translate(-0.02)"/><path class="cls-3" d="M56.77,220.79h0a.63.63,0,0,1-.07.84l-4.17,3.79a.53.53,0,0,1-.78-.07h0a.63.63,0,0,1,.07-.84L56,220.72A.53.53,0,0,1,56.77,220.79Z" transform="translate(-0.02)"/></g><g id="X"><polygon class="cls-2" points="18.46 77.9 263.06 179.47 17.33 80.66 18.46 77.9"/><polygon class="cls-2" points="193.86 0.66 95.52 276.72 191.99 0 193.86 0.66"/></g><g id="I"><path class="cls-3" d="M146.72,62.62c-6.23,22.38-15,39.32-19.67,37.82S123.72,79.58,130,57.2s15-39.32,19.67-37.82S153,40.23,146.72,62.62Z" transform="translate(-0.02)"/><path class="cls-2" d="M145.09,63c-1.32,4.73-3.67,8.16-5.24,7.65s-1.79-4.76-.47-9.5S143,53,144.62,53.5,146.41,58.26,145.09,63Z" transform="translate(-0.02)"/><path class="cls-3" d="M52,31.76s1.64,1.07,4.44,3c1.42,1,3.09,2.18,5,3.57s4.1,3,6.43,4.76,4.88,3.68,7.52,5.76,5.4,4.31,8.25,6.62,5.73,4.78,8.66,7.29,5.85,5.12,8.72,7.79,5.83,5.25,8.6,7.94,5.59,5.27,8.07,8,4.89,5.35,7,8,4.13,5.12,5.79,7.57,3.21,4.67,4.54,6.66,2.31,3.86,3.16,5.36c1.69,3,2.57,4.77,2.57,4.77l-.48.33s-1.43-1.38-3.78-3.87l-4.17-4.52c-1.64-1.71-3.5-3.64-5.45-5.79l-1.49-1.64-1.62-1.65-3.33-3.52-7.15-7.62-7.52-8.29c-2.52-2.87-5.26-5.62-8-8.41s-5.53-5.45-8.24-8.14-5.49-5.24-8.17-7.71S76.21,53.19,73.71,51s-4.85-4.33-7.06-6.25c-4.4-3.84-8.16-6.94-10.78-9.11s-4.16-3.37-4.16-3.37Z" transform="translate(-0.02)"/><path class="cls-3" d="M173.8.33,31,36.55S184,23.39,176.7,16.24,173.8.33,173.8.33Z" transform="translate(-0.02)"/><path class="cls-2" d="M138.87,41.19s2.47-8.87,5.84-12.18c0,0-1.42,4.52.78,5.23C145.48,34.25,139.77,38,138.87,41.19Z" transform="translate(-0.02)"/></g><g id="PHOTOGRAPHY"><line class="cls-10" x1="142.35" y1="62.49" x2="143.36" y2="62.83"/><line class="cls-11" x1="145.35" y1="63.49" x2="172.18" y2="72.51"/><line class="cls-10" x1="173.17" y1="72.85" x2="174.18" y2="73.19"/><path class="cls-3" d="M180.28,75.23a32.12,32.12,0,0,0-10.22,1.9l3.34-4.21-.12-5.37A32.09,32.09,0,0,0,180.28,75.23Z" transform="translate(-0.02)"/><path class="cls-3" d="M288.19,50.15v.29a14.65,14.65,0,0,1,4.53.71c14.92,4.84,20.24,33.1,11.87,63-3.63,13-9.47,24.76-16.45,33.21s-14.41,12.9-21.22,12.9a14.65,14.65,0,0,1-4.53-.71c-14.92-4.84-20.24-33.1-11.87-63,3.63-13,9.47-24.76,16.45-33.21s14.41-12.9,21.22-12.9v-.29m0,0c-14.16,0-30.37,19.25-37.95,46.33-8.43,30.09-3,58.45,12.06,63.35a14.89,14.89,0,0,0,4.62.73c14.16,0,30.37-19.25,37.95-46.33,8.43-30.09,3-58.45-12.06-63.35a14.89,14.89,0,0,0-4.62-.73Z" transform="translate(-0.02)"/><path class="cls-3" d="M289.53,39.41l-10,4.42-20.08-6L247.33,42.9l-14.1-4.39-28.36,2.67-7.58-2.36c-12.51,21.83-21,52-21.75,77.67l7.53,2.55,22.28,19.12,14,4.73,7.44,11.45,19.83,6.93L257.91,173c6.77,3,17.55,6.71,17.55,6.71l-6.09-40.33c15.53-14.55,22.86-36.78,19.35-58.62l27-31.38C318.16,47.09,292.67,40.06,289.53,39.41Z" transform="translate(-0.02)"/><path class="cls-2" d="M299,123.7s13.5-31.68,4.41-58.14c0,0-5.7,9-9.22,12.88C294.14,78.45,307.17,85.48,299,123.7Z" transform="translate(-0.02)"/><path class="cls-2" d="M279.5,43.83s-.24.41-.67,1.21-1,2-1.74,3.48-1.55,3.37-2.49,5.5-1.9,4.58-2.9,7.27-2,5.61-3.17,8.69c-.54,1.55-1,3.16-1.59,4.8s-1.11,3.3-1.61,5c-1,3.43-2.14,7-3.12,10.59l-1.54,5.47-1.41,5.55-1.43,5.54-1.29,5.53-1.28,5.44c-.42,1.8-.77,3.58-1.16,5.34-.72,3.51-1.53,6.88-2.15,10.11l-1.79,9.09c-1.14,5.63-1.93,10.35-2.56,13.64l-1,5.18.61-5.23.74-6,.46-3.69c.16-1.3.4-2.66.62-4.08l1.46-9.17c.52-3.25,1.22-6.66,1.89-10.19.35-1.76.67-3.56,1.06-5.37l1.22-5.48,1.26-5.56,1.41-5.58,1.45-5.56,1.58-5.49c1-3.65,2.2-7.17,3.3-10.6.54-1.72,1.14-3.38,1.73-5s1.15-3.23,1.74-4.77c1.21-3.07,2.33-6,3.51-8.62s2.28-5,3.28-7.14,2-3.91,2.82-5.37,1.51-2.59,2-3.35S279.5,43.83,279.5,43.83Z" transform="translate(-0.02)"/><path class="cls-2" d="M259.42,37.8s-.26.4-.72,1.17-1.1,1.91-1.87,3.38-1.67,3.28-2.67,5.37c-.49,1-1,2.19-1.5,3.37s-1.07,2.44-1.61,3.76-1.13,2.68-1.67,4.12l-1.68,4.45c-.6,1.52-1.11,3.12-1.67,4.74s-1.16,3.26-1.69,5l-1.61,5.18-.82,2.64-.76,2.69c-1,3.6-2.08,7.25-2.94,10.95l-1.4,5.52c-.46,1.84-.83,3.69-1.24,5.51-.79,3.66-1.67,7.23-2.29,10.75s-1.39,6.87-2,10.09l-1.56,9.08-.7,4-.55,3.65-.9,5.94-.82,5.18.44-5.22.55-6,.34-3.69c.14-1.3.34-2.65.52-4.07l1.22-9.16c.48-3.25,1.09-6.65,1.7-10.18s1.35-7.15,2.14-10.83c.4-1.84.76-3.7,1.21-5.55l1.38-5.56c.89-3.72,2-7.38,3-11l.78-2.7.87-2.64,1.72-5.18c.57-1.7,1.21-3.34,1.81-5s1.17-3.21,1.83-4.71l1.84-4.42c.6-1.42,1.26-2.77,1.85-4.07,1.16-2.62,2.43-4.93,3.49-7s2.11-3.81,3-5.23,1.61-2.51,2.12-3.25S259.42,37.8,259.42,37.8Z" transform="translate(-0.02)"/><path class="cls-2" d="M245.86,43l-.57,1c-.38.66-.87,1.67-1.54,2.93s-1.42,2.82-2.23,4.63-1.7,3.86-2.69,6.09c-.48,1.12-.93,2.31-1.42,3.53s-1,2.47-1.48,3.79l-1.49,4L233,73.25c-1,2.87-1.86,5.91-2.82,9s-1.7,6.22-2.56,9.35L225.4,101l-1.83,9.21-1.41,8.68c-.25,1.38-.4,2.73-.56,4l-.49,3.78c-.29,2.42-.66,4.64-.81,6.62l-.49,5.12c-.28,2.84-.47,4.47-.47,4.47s0-1.63.08-4.49l.14-5.16c0-2,.22-4.23.41-6.68s.34-5.1.72-7.89l1.16-8.77,1.68-9.32c.69-3.15,1.42-6.34,2.16-9.53.89-3.15,1.69-6.33,2.65-9.41s1.92-6.11,3-9c.53-1.44,1-2.87,1.57-4.24l1.65-4c1-2.61,2.22-5,3.24-7.24s2.09-4.22,3.07-6,1.84-3.25,2.55-4.48C244.9,44.3,245.86,43,245.86,43Z" transform="translate(-0.02)"/><path class="cls-2" d="M233.58,39.13l-.57,1c-.38.66-.87,1.67-1.54,2.93s-1.42,2.82-2.23,4.63-1.7,3.86-2.69,6.09c-.48,1.12-.93,2.31-1.42,3.53s-1,2.47-1.48,3.79l-1.49,4-1.45,4.25c-1,2.87-1.86,5.91-2.82,9s-1.7,6.22-2.56,9.35l-2.21,9.44-1.83,9.21L209.87,115c-.25,1.38-.4,2.73-.56,4l-.49,3.78c-.29,2.42-.66,4.64-.81,6.62l-.49,5.12c-.28,2.84-.47,4.47-.47,4.47s0-1.63.08-4.49l.14-5.16c0-2,.22-4.23.41-6.68s.34-5.1.72-7.89l1.16-8.77,1.68-9.32c.69-3.15,1.42-6.34,2.16-9.53.89-3.15,1.69-6.33,2.65-9.41s1.92-6.11,3-9c.53-1.44,1-2.87,1.57-4.24l1.65-4c1-2.61,2.22-5,3.24-7.24s2.09-4.22,3.07-6,1.84-3.25,2.55-4.48C232.62,40.45,233.58,39.13,233.58,39.13Z" transform="translate(-0.02)"/><path class="cls-2" d="M205.37,42.31l-.44.79-1.21,2.26c-.51,1-1.13,2.17-1.79,3.56s-1.4,3-2.18,4.67-1.56,3.61-2.43,5.59-1.67,4.11-2.48,6.32-1.66,4.49-2.41,6.85c-.39,1.17-.81,2.35-1.17,3.54l-1.06,3.61c-.77,2.39-1.33,4.84-2,7.23-.32,1.19-.6,2.39-.85,3.57l-.77,3.5-.37,1.71-.3,1.69-.58,3.27c-.41,2.12-.67,4.15-.92,6s-.53,3.58-.68,5.11l-.36,4c-.2,2.2-.35,3.46-.35,3.46s0-1.26,0-3.48c0-1.11,0-2.46,0-4s.16-3.28.28-5.18l.2-3c.07-1,.25-2.07.38-3.15l.43-3.33.24-1.72.33-1.74.68-3.56.35-1.82.45-1.81c.62-2.42,1.16-4.91,1.92-7.34l1.1-3.64c.38-1.21.82-2.39,1.22-3.57.78-2.38,1.73-4.65,2.6-6.86s1.87-4.29,2.76-6.28,1.84-3.82,2.77-5.49c.45-.84.87-1.65,1.3-2.4l1.25-2.12c.78-1.33,1.51-2.46,2.1-3.4C204.6,43.32,205.37,42.31,205.37,42.31Z" transform="translate(-0.02)"/></g></g></svg>