<?xml version="1.0" encoding="utf-8"?>
<!-- Generator: Adobe Illustrator 20.0.0, SVG Export Plug-In . SVG Version: 6.00 Build 0)  -->
<svg version="1.1" id="Layer_1" xmlns="http://www.w3.org/2000/svg" xmlns:xlink="http://www.w3.org/1999/xlink" x="0px" y="0px"
	 viewBox="0 0 150 150" style="enable-background:new 0 0 150 150;" xml:space="preserve">
<title>design</title>
<g id="Layer_2">
	<g id="Layer_1-2">
		<path d="M75,0C33.6,0,0,33.6,0,75s33.6,75,75,75s75-33.6,75-75S116.4,0,75,0z M94.3,146.2L94.3,146.2L94.3,146.2
			c-6.4,1.7-12.8,2.5-19.4,2.5c-6.3,0-18.2-2.5-18.2-2.5v-18.6h37.6V146.2L94.3,146.2L94.3,146.2z M98.2,113.5
			c-2.1,2.4-1.8,6.1,0.6,8.2c0.5,0.4,1.1,0.8,1.7,1c-1.2,2.1-3.5,3.3-5.9,3.3H56.4c-2.4,0-4.7-1.3-5.9-3.3c3-1.1,4.5-4.5,3.4-7.5
			c-0.2-0.6-0.6-1.2-1-1.7h0.5c-1.8-0.2-3.1-1.9-2.8-3.6c0.2-1.5,1.4-2.7,2.8-2.8h44.3c1.8,0.2,3.1,1.9,2.8,3.6
			c-0.2,1.5-1.4,2.7-2.8,2.8H98.2z M97.4,96l-4.6,9l-36.3-0.4l-4.4-9.3c0.3,0.1,0.6,0.2,0.9,0.3l1.1,0.5c0.6,0.2,1.3,0.5,2.2,0.8
			s1.8,0.6,2.8,0.9l1.6,0.4c0.6,0.2,1.2,0.3,1.8,0.4c1.2,0.3,2.5,0.5,3.9,0.7c0.7,0.1,1.4,0.2,2.1,0.3s1.4,0.2,2.1,0.2l2.2,0.2
			L75,100c1.5,0,2.9,0,4.3-0.1l2.1-0.2l2.1-0.2c1.4-0.2,2.7-0.4,3.9-0.6s2.4-0.5,3.4-0.8s2-0.6,2.8-0.8s1.6-0.5,2.2-0.7L97.4,96z
			 M97.2,96l0.3-0.1l0,0L97.2,96z M91.4,92.8c0.5,2.1,2.4,3.5,4.6,3.4l-0.3,0.1c-1.2,0.3-3,0.6-5.1,0.9c-1.1,0.2-2.2,0.3-3.4,0.5
			s-2.5,0.3-3.8,0.4l-2,0.2l-2.1,0.1c-1.4,0.1-2.8,0.1-4.2,0h-2.1l-2.1-0.1c-1.4-0.1-2.8-0.2-4.1-0.3s-2.6-0.3-3.8-0.5
			s-2.4-0.4-3.4-0.6s-2-0.4-2.9-0.6s-1.6-0.3-2.2-0.5l-0.2,0c2-0.1,3.7-1.5,4.1-3.4C61.9,76.2,48.3,75,48.3,75l25.8-59.7l-0.7,48.9
			c-2.2,0.1-4.2,1.2-5.5,3c-3.1,3.7-2.6,9.2,1.1,12.4c3.7,3.1,9.2,2.6,12.4-1.1c3.1-3.7,2.6-9.2-1.1-12.4c0,0,0,0,0,0
			c-1-1-2.4-1.6-3.8-1.8l0.5-49l24.7,60.2C101.7,75.6,88,76.5,91.4,92.8L91.4,92.8z"/>
		<path d="M74.8,141.8c0,6.9,0.3,6.6,0.8,6.6s0.8,0.3,0.8-6.6s-0.3-13.6-0.8-13.6S74.8,134.9,74.8,141.8z"/>
		<path d="M64.5,142.3c0,6.9,1.5,6.9,1.5,0s-0.3-14.1-0.8-14.1S64.5,135.4,64.5,142.3z"/>
		<path d="M85,142.3c0,6.9,1.5,6.9,1.5,0s-0.3-14.1-0.8-14.1S85,135.4,85,142.3z"/>
	</g>
</g>
</svg>
