<svg xmlns="http://www.w3.org/2000/svg" viewBox="0 0 150 150"><defs><style>.cls-1{fill:#fff;}</style></defs><title>photography</title><g id="Layer_2" data-name="Layer 2"><g id="Layer_4" data-name="Layer 4"><path d="M75,0a75,75,0,1,0,75,75A75,75,0,0,0,75,0ZM94.3,146.21v0h-.08a75.11,75.11,0,0,1-19.27,2.5c-6.3,0-18.25-2.5-18.25-2.5v-18.6H94.3v18.58h0Zm3.87-32.69a5.82,5.82,0,0,0,2.34,9.24,6.88,6.88,0,0,1-5.9,3.35H56.39a6.88,6.88,0,0,1-5.9-3.35,5.82,5.82,0,0,0,2.34-9.24h.54a3.27,3.27,0,0,1,0-6.49H97.63a3.27,3.27,0,0,1,0,6.49Z"/><path d="M74.75,141.8c0,6.9.34,6.63.75,6.63s.75.28.75-6.63-.34-13.65-.75-13.65S74.75,134.9,74.75,141.8Z"/><path d="M64.47,142.3c0,6.9,1.49,6.93,1.5,0s-.34-14.15-.75-14.15S64.47,135.4,64.47,142.3Z"/><path d="M85,142.3c0,6.93,1.5,6.9,1.5,0s-.34-14.15-.75-14.15S85,135.4,85,142.3Z"/><path class="cls-1" d="M54.41,95.72l40,.37,1.74,5.49a89.17,89.17,0,0,1-42.83-.4Z"/><path class="cls-1" d="M53.27,101.19V96.7L47.39,81.62l0-8.34-4.51-5.84-.14-11.85-3.84-4.82c-.17-1.81-.67-16.76.86-15.78L60,45.09A33.46,33.46,0,0,1,92.76,47l19.47-9.28s-.14,6.43-.61,10.57l-4.13,7.9L107.13,68l-4.62,5.75-.17,8.33-6.14,15-.09,4.49"/><path class="cls-1" d="M81.12,33.16c-2.22-.33-18.65-2.36-30.17,6.18,0,0,5.49,2.55,8,3.91C58.94,43.25,60.43,34.32,81.12,33.16Z"/><path d="M42.73,55.58s.94.42,2.65,1c.86.27,1.89.62,3.11.94s2.59.65,4.08,1,3.14.68,4.89.91l2.68.4,2.82.31c1.91.26,3.9.29,5.92.45s4.07.09,6.13.09,4.11-.09,6.12-.22,4-.3,5.91-.51l5.51-.72c1.75-.26,3.38-.6,4.9-.87s2.91-.51,4.13-.82l3.16-.73,2.76-.64-2.73.74-3.14.85c-1.21.36-2.59.64-4.11.95s-3.15.68-4.9,1l-5.52.81c-1.92.22-3.92.37-5.94.56s-4.09.17-6.15.27-4.13-.05-6.16-.13-4-.22-5.95-.49l-2.83-.34-2.69-.46c-1.75-.27-3.38-.7-4.89-1s-2.87-.74-4.06-1.15-2.23-.75-3.08-1.06C43.65,56,42.73,55.58,42.73,55.58Z"/><path d="M43.86,67.43s.94.42,2.63,1c.85.27,1.88.64,3.08,1s2.56.69,4,1.06,3.12.69,4.85,1,3.56.59,5.46.78c1,.1,1.91.25,2.9.32l3,.2c1,.09,2,.11,3,.12l3.06,0c2,0,4.08-.12,6.09-.18l5.88-.53,5.47-.79c.87-.11,1.71-.28,2.52-.45l2.34-.49c1.5-.33,2.89-.55,4.09-.91l3.12-.83,2.72-.72-2.69.83-3.09.95c-1.19.41-2.57.68-4.07,1l-2.34.54c-.81.2-1.64.38-2.52.51-1.74.28-3.57.62-5.48.88L82,73.34c-2,.07-4.07.2-6.13.22l-3.08-.07c-1,0-2,0-3.05-.14l-3-.22c-1-.07-2-.23-2.91-.34-1.92-.2-3.75-.56-5.48-.88s-3.36-.72-4.85-1.1-2.85-.78-4-1.19-2.21-.78-3.05-1.08C44.78,67.88,43.86,67.43,43.86,67.43Z"/><path d="M48.37,73.27s.82.33,2.28.79c.74.22,1.62.5,2.66.77s2.2.56,3.48.85,2.68.54,4.16.83,3.05.5,4.68.66l2.48.28c.84.08,1.69.12,2.55.18,1.72.15,3.47.15,5.22.17l1.31,0,1.31,0,2.6-.08c1.72-.06,3.4-.28,5-.4s3.19-.44,4.69-.63,2.88-.51,4.17-.77,2.48-.46,3.51-.76l2.67-.72,2.33-.63-2.3.73-2.64.84c-1,.35-2.21.57-3.49.89s-2.67.67-4.17.88-3.06.57-4.7.72-3.34.38-5.07.45l-2.62.11-1.32.05-1.32,0c-1.76,0-3.52-.05-5.25-.21-.86-.07-1.72-.11-2.57-.2l-2.5-.3c-1.64-.16-3.21-.52-4.7-.75S58,76.38,56.71,76l-1.83-.48L53.25,75c-1-.31-1.9-.63-2.63-.89C49.17,73.63,48.37,73.27,48.37,73.27Z"/><path d="M47.39,81.62s.82.31,2.28.75c.74.2,1.62.47,2.66.71s2.2.51,3.48.78,2.67.5,4.15.73,3,.43,4.66.58,3.3.3,5,.39,3.45.07,5.18.12,3.47-.08,5.18-.12l5-.38,4.67-.57c1.49-.15,2.87-.48,4.16-.68s2.47-.4,3.5-.66l2.68-.61,2.34-.53-2.31.64-2.66.73c-1,.31-2.2.52-3.48.79s-2.66.61-4.16.79-3,.48-4.68.66l-5,.43c-1.72,0-3.47.15-5.22.16s-3.5,0-5.22-.17-3.41-.22-5-.43-3.19-.43-4.68-.67-2.87-.55-4.15-.84-2.44-.6-3.46-.91-1.9-.6-2.63-.83C48.2,82,47.39,81.62,47.39,81.62Z"/><path d="M53.26,96.7a59,59,0,0,0,6.61,1.58c1,.21,2.09.36,3.24.55s2.37.32,3.64.45,2.57.26,3.91.31,2.69.12,4,.12,2.71,0,4,0,2.64-.18,3.91-.26,2.48-.29,3.64-.41,2.25-.32,3.25-.51,1.93-.31,2.73-.51l2.09-.49,1.83-.41-1.79.53-2.07.6c-.8.24-1.72.4-2.72.63s-2.08.46-3.25.62-2.38.42-3.66.5-2.59.27-3.94.3-2.71.14-4.08.09-2.73-.05-4.07-.17S68,100,66.69,99.84s-2.49-.36-3.65-.54-2.25-.42-3.24-.66c-2-.43-3.63-1-4.77-1.3S53.26,96.7,53.26,96.7Z"/><path class="cls-1" d="M74.84,31.32v.16h.52c16.48.15,29.82,7.48,29.73,16.34C105,56.53,91.78,63.61,75.59,63.61h-.52c-8-.07-15.5-1.82-21.12-4.93s-8.65-7.14-8.61-11.41c.08-8.71,13.32-15.79,29.51-15.79v-.16m0,0c-16.35,0-29.59,7.08-29.67,15.95s13.3,16.35,29.89,16.5h.52c16.35,0,29.59-7.08,29.67-15.95S92,31.47,75.37,31.32Z"/></g></g></svg>