<svg xmlns="http://www.w3.org/2000/svg" viewBox="0 0 150 150"><title>video-production</title><g id="Layer_2" data-name="Layer 2"><g id="Layer_3" data-name="Layer 3"><circle cx="46.99" cy="68.54" r="12.28"/><circle cx="74.9" cy="60.04" r="7.22"/><circle cx="57.86" cy="36.37" r="12.28" transform="translate(-8.41 19.66) rotate(-18)"/><path d="M75,0a75,75,0,1,0,75,75A75,75,0,0,0,75,0ZM94.3,146.21v0h-.08a75.11,75.11,0,0,1-19.27,2.5c-6.3,0-18.25-2.5-18.25-2.5v-18.6H94.3v18.58h0Zm3.87-32.69a5.82,5.82,0,0,0,2.34,9.24,6.88,6.88,0,0,1-5.9,3.35H56.39a6.88,6.88,0,0,1-5.9-3.35,5.82,5.82,0,0,0,2.34-9.24h.54a3.27,3.27,0,0,1,0-6.49H97.63a3.27,3.27,0,0,1,0,6.49ZM74.57,103.9a44,44,0,1,1,44-44A44,44,0,0,1,74.57,103.9Z"/><circle cx="102.14" cy="68.54" r="12.28"/><circle cx="74.9" cy="88.82" r="12.28" transform="translate(-23.78 27.49) rotate(-18)"/><circle cx="91.28" cy="36.37" r="12.28" transform="translate(28.48 111.94) rotate(-72)"/><path d="M74.75,141.8c0,6.9.34,6.63.75,6.63s.75.28.75-6.63-.34-13.65-.75-13.65S74.75,134.9,74.75,141.8Z"/><path d="M64.47,142.3c0,6.9,1.49,6.93,1.5,0s-.34-14.15-.75-14.15S64.47,135.4,64.47,142.3Z"/><path d="M85,142.3c0,6.93,1.5,6.9,1.5,0s-.34-14.15-.75-14.15S85,135.4,85,142.3Z"/></g></g></svg>